<!DOCTYPE svg PUBLIC "-//W3C//DTD SVG 1.1//EN" "http://www.w3.org/Graphics/SVG/1.1/DTD/svg11.dtd">
<!-- Uploaded to: SVG Repo, www.svgrepo.com, Transformed by: SVG Repo Mixer Tools -->
<svg fill="#000000" height="256px" width="256px" version="1.1" id="Layer_1" xmlns="http://www.w3.org/2000/svg" xmlns:xlink="http://www.w3.org/1999/xlink" viewBox="-51.2 -51.2 614.40 614.40" xml:space="preserve">
<g id="SVGRepo_bgCarrier" stroke-width="0">
<rect x="-51.2" y="-51.2" width="614.40" height="614.40" rx="0" fill="#ebebeb" strokewidth="0"/>
</g>
<g id="SVGRepo_tracerCarrier" stroke-linecap="round" stroke-linejoin="round"/>
<g id="SVGRepo_iconCarrier"> <g> <g> <path d="M437.019,74.98C388.667,26.628,324.381,0,256,0C187.62,0,123.333,26.628,74.98,74.98C26.628,123.333,0,187.62,0,256 s26.628,132.667,74.98,181.02C123.333,485.372,187.62,512,256,512c68.381,0,132.667-26.628,181.019-74.98 C485.372,388.667,512,324.38,512,256S485.372,123.333,437.019,74.98z M25.381,232.071c-1.059-0.963-2.265-1.658-3.537-2.096 C34.838,112.266,134.884,20.398,256,20.398s221.162,91.867,234.156,209.576c-1.273,0.438-2.479,1.134-3.538,2.097 c-4.167,3.789-4.474,10.24-0.684,14.407c3.084,3.391,4.648,6.595,4.648,9.521c0,9.277-16.813,24.733-64.199,37.765 C381.005,306.243,320.496,313.116,256,313.116s-125.005-6.872-170.382-19.351c-47.387-13.031-64.2-28.487-64.2-37.765 c0-2.926,1.564-6.13,4.648-9.522C29.855,242.311,29.549,235.86,25.381,232.071z M256,491.602 c-118.638,0-217.058-88.149-233.25-202.388c13.289,9.212,32.539,17.366,57.459,24.219c47.089,12.95,109.519,20.081,175.79,20.081 s128.702-7.131,175.79-20.081c24.92-6.853,44.17-15.008,57.458-24.219C473.058,403.453,374.638,491.602,256,491.602z"/> </g> </g> <g> <g> <path d="M313.66,180.342c-12.558-0.824-25.487-1.381-38.425-1.654c-0.073-0.002-0.147-0.002-0.219-0.002 c-5.533,0-10.076,4.425-10.193,9.984c-0.119,5.632,4.35,10.293,9.982,10.412c12.638,0.267,25.261,0.81,37.519,1.615 c0.228,0.015,0.453,0.022,0.678,0.022c5.328,0,9.814-4.139,10.168-9.532C323.537,185.566,319.28,180.712,313.66,180.342z"/> </g> </g> <g> <g> <path d="M390.236,189.34c-12.121-2.148-24.98-4.014-38.219-5.546c-5.594-0.65-10.655,3.364-11.304,8.959 c-0.647,5.595,3.364,10.656,8.96,11.304c12.835,1.485,25.284,3.291,37.004,5.369c0.602,0.106,1.2,0.158,1.792,0.158 c4.853,0,9.155-3.476,10.031-8.42C399.482,195.617,395.783,190.323,390.236,189.34z"/> </g> </g> <g> <g> <path d="M465.611,210.077c-10.712-4.55-23.3-8.748-37.413-12.478c-5.442-1.44-11.028,1.808-12.467,7.255 c-1.439,5.444,1.809,11.026,7.255,12.465c13.175,3.482,24.834,7.362,34.652,11.532c1.3,0.553,2.653,0.814,3.982,0.814 c3.97,0,7.743-2.331,9.392-6.214C473.214,218.267,470.795,212.279,465.611,210.077z"/> </g> </g> <g> <g> <path d="M96.308,204.845c-1.439-5.445-7.018-8.695-12.466-7.256c-14.112,3.728-26.698,7.924-37.413,12.472 c-5.185,2.201-7.605,8.188-5.404,13.373c1.649,3.884,5.423,6.216,9.393,6.216c1.329,0,2.68-0.261,3.981-0.813 c9.82-4.168,21.48-8.046,34.653-11.526C94.499,215.872,97.747,210.291,96.308,204.845z"/> </g> </g> <g> <g> <path d="M236.799,178.687c-12.939,0.273-25.865,0.829-38.423,1.652c-5.621,0.368-9.879,5.224-9.51,10.845 c0.352,5.394,4.836,9.532,10.167,9.532c0.224,0,0.45-0.007,0.677-0.022c12.258-0.804,24.882-1.346,37.519-1.613 c5.632-0.118,10.1-4.78,9.982-10.412C247.092,183.036,242.416,178.531,236.799,178.687z"/> </g> </g> <g> <g> <path d="M171.32,192.749c-0.647-5.595-5.705-9.615-11.304-8.96c-13.243,1.531-26.101,3.396-38.218,5.544 c-5.546,0.983-9.246,6.277-8.263,11.823c0.877,4.946,5.179,8.422,10.032,8.422c0.591,0,1.19-0.051,1.792-0.158 c11.715-2.077,24.164-3.882,37.002-5.367C167.955,203.406,171.967,198.345,171.32,192.749z"/> </g> </g> </g>
</svg>